<?xml version="1.0" encoding="iso-8859-1"?>
<!-- Generator: Adobe Illustrator 19.0.0, SVG Export Plug-In . SVG Version: 6.00 Build 0)  -->
<svg version="1.1" id="Capa_1" xmlns="http://www.w3.org/2000/svg" xmlns:xlink="http://www.w3.org/1999/xlink" x="0px" y="0px"
	 viewBox="0 0 512 512" style="enable-background:new 0 0 512 512;" xml:space="preserve">
<circle style="fill:#FDD054;" cx="272.07" cy="256" r="239.93"/>
<g>
	<path style="fill:#CCE6EA;" d="M240.285,183.507c0-31.67,0-63.462,0-95.24c0-1.242-2.229-1.957-3.809-1.222l-14.999,6.983
		c-3.255,1.515-5.669,3.644-6.897,6.083l-21.182,42.068c-0.494,0.98-0.745,2.002-0.745,3.031v11.791v26.505L240.285,183.507
		L240.285,183.507z"/>
	<path style="fill:#CCE6EA;" d="M64.281,183.507c0-4.768,0-26.863,0-38.296c0-1.029-0.251-2.051-0.745-3.031l-21.183-42.068
		c-1.228-2.438-3.642-4.568-6.897-6.083l-15-6.983c-1.58-0.735-3.809-0.02-3.809,1.222c0,34.859,0,60.231,0,95.24L64.281,183.507
		L64.281,183.507z"/>
</g>
<g>
	<path style="fill:#ACDDE2;" d="M216.469,150.45L216.469,150.45c-9.05,0-16.921-5.048-20.951-12.482l-2.12,4.211
		c-0.494,0.98-0.745,2.002-0.745,3.031v11.791v26.505h47.632c0-14.038,0-52.704,0-56.873
		C240.285,139.787,229.622,150.45,216.469,150.45z"/>
	<path style="fill:#ACDDE2;" d="M61.416,137.968c-4.03,7.434-11.901,12.482-20.951,12.482l0,0
		c-13.153,0-23.816-10.663-23.816-23.816c0,4.481,0,50.12,0,56.873h47.632c0-4.768,0-26.863,0-38.296
		c0-1.029-0.251-2.051-0.745-3.031L61.416,137.968z"/>
</g>
<path style="fill:#359AED;" d="M390.167,266.883h121.576c1.284-28.757-2.483-56.783-10.902-83.377H390.167V266.883z"/>
<path style="fill:#53B6F9;" d="M510.378,227.981c-1.784-15.311-5.011-30.181-9.536-44.475H390.167v44.475L510.378,227.981
	L510.378,227.981z"/>
<rect x="58.901" y="183.51" style="fill:#359AED;" width="137.96" height="83.38"/>
<rect x="58.901" y="183.51" style="fill:#53B6F9;" width="137.96" height="44.48"/>
<g>
	<path style="fill:#7CCFFC;" d="M95.397,217.546c5.133,0,9.294-4.16,9.294-9.294v-24.745H86.103v24.745
		C86.103,213.385,90.264,217.546,95.397,217.546z"/>
	<path style="fill:#7CCFFC;" d="M128.467,207.052c5.133,0,9.294-4.16,9.294-9.294v-14.251h-18.587v14.251
		C119.174,202.891,123.335,207.052,128.467,207.052z"/>
	<path style="fill:#7CCFFC;" d="M152.244,183.507v24.745c0,5.133,4.161,9.294,9.294,9.294s9.294-4.16,9.294-9.294v-24.745H152.244z"
		/>
	<path style="fill:#7CCFFC;" d="M431.169,217.546c5.133,0,9.294-4.16,9.294-9.294v-24.745h-18.587v24.745
		C421.875,213.385,426.036,217.546,431.169,217.546z"/>
	<path style="fill:#7CCFFC;" d="M464.238,207.052c5.133,0,9.294-4.16,9.294-9.294v-14.251h-18.587v14.251
		C454.945,202.891,459.106,207.052,464.238,207.052z"/>
	<path style="fill:#7CCFFC;" d="M497.309,217.546c5.133,0,9.294-4.16,9.294-9.293v-3.009c-1.589-7.377-3.511-14.629-5.761-21.737
		h-12.826v24.746C488.015,213.385,492.176,217.546,497.309,217.546z"/>
</g>
<path style="fill:#675991;" d="M301.878,181.584c-5.133,0-9.294-4.16-9.294-9.294v-28.352c0-5.133,4.161-9.294,9.294-9.294
	s9.294,4.16,9.294,9.294v28.352C311.171,177.423,307.01,181.584,301.878,181.584z"/>
<path style="fill:#786EA0;" d="M319.26,151.993h-34.765c-5.133,0-9.294-4.16-9.294-9.294c0-5.133,4.161-9.294,9.294-9.294h34.765
	c5.133,0,9.294,4.16,9.294,9.294C328.554,147.833,324.393,151.993,319.26,151.993z"/>
<path style="fill:#675991;" d="M301.878,142.699c0-5.133,4.161-9.294,9.294-9.294h-26.676c-5.133,0-9.294,4.16-9.294,9.294
	s4.161,9.293,9.294,9.293h26.676C306.039,151.993,301.878,147.833,301.878,142.699z"/>
<path style="fill:#E4EFF1;" d="M55.674,169.859H6.545c-3.615,0-6.545,2.93-6.545,6.545c0,23.341,0,96.049,0,124.34
	c0,2.191,0.339,4.368,1.005,6.456l28.587,89.593c1.657,5.193,4.915,9.728,9.307,12.955l20.242,14.872
	c2.132,1.566,5.14,0.044,5.14-2.602c0-38.068,0-205.974,0-243.55C64.282,173.713,60.428,169.859,55.674,169.859z"/>
<g>
	<path style="fill:#CCE6EA;" d="M34.352,331.483c-0.666-2.213-1.005-4.522-1.005-6.845c0-16.557,0-123.951,0-154.778H6.545
		C2.93,169.86,0,172.79,0,176.405c0,23.341,0,96.049,0,124.34c0,2.191,0.339,4.368,1.005,6.456l28.587,89.593
		c1.657,5.193,4.915,9.728,9.307,12.955l20.242,14.872c1.052,0.773,2.315,0.791,3.327,0.297L34.352,331.483z"/>
	<path style="fill:#CCE6EA;" d="M256.948,288.436v8.591c0,5.497-1.546,7.26-7.664,27.326h95.156c5.635,0,10.203-4.568,10.203-10.203
		v-25.714l0,0C336.634,288.436,263.518,288.436,256.948,288.436z"/>
</g>
<path style="fill:#ACDDE2;" d="M292.584,314.15v-25.714c-7.736,0-22.379,0-35.636,0v8.591c0,5.499-1.545,7.259-7.664,27.326h53.503
	C297.152,324.353,292.584,319.785,292.584,314.15z"/>
<path style="fill:#E4EFF1;" d="M385.435,169.812c-142.701-0.016-138.844,0.009-184.161,0.047c-4.754,0-8.608,3.854-8.608,8.608
	v25.112c0,2.819,0,213.849,0,218.438c0,2.646,3.008,4.168,5.14,2.602l20.242-14.872c4.393-3.227,7.651-7.762,9.307-12.955
	l28.587-89.593c0.666-2.087,1.005-4.265,1.005-6.456v-8.591c11.732,0,78.469,0,97.694,0h30.203c5.055,0,9.154-4.098,9.154-9.154
	V178.376C393.999,173.646,390.165,169.812,385.435,169.812z"/>
<g>
	<path style="fill:#CCE6EA;" d="M284.209,283V178.376c0-4.73,3.834-8.564,8.564-8.564c-137.546,0.096-36.361,0.019-91.499,0.047
		c-4.754,0-8.608,3.854-8.608,8.608c0,25.713,0,212.622,0,243.55c0,2.646,3.008,4.168,5.14,2.602l20.242-14.872
		c4.392-3.227,7.65-7.762,9.307-12.955l28.587-89.593c0.666-2.087,1.005-4.265,1.005-6.456v-8.591c13.525,0,22.76,0,36.415,0
		C288.307,292.153,284.209,288.055,284.209,283z"/>
	<rect x="192.67" y="202.27" style="fill:#CCE6EA;" width="201.33" height="57.17"/>
</g>
<path style="fill:#ACDDE2;" d="M284.209,202.267h-91.543c0,15.007,0,35.124,0,57.173h91.543V202.267z"/>
<g>
</g>
<g>
</g>
<g>
</g>
<g>
</g>
<g>
</g>
<g>
</g>
<g>
</g>
<g>
</g>
<g>
</g>
<g>
</g>
<g>
</g>
<g>
</g>
<g>
</g>
<g>
</g>
<g>
</g>
</svg>
